<svg id="airgeddon" version="1.1" viewBox="0 0 1920 1080" xmlns="http://www.w3.org/2000/svg">
 <title>airgeddon</title>
 <g id="pathtextblack" transform="translate(32.566 -22.796)" aria-label="airgeddon">
  <path d="m467.96 958.78v44.092q-5.2409 0.9114-9.5703 0.9114-25.635 0-42.725-16.862-17.09-16.862-17.09-42.269 0-24.723 17.204-41.927 17.318-17.204 42.041-17.204 27.572 0 43.408 16.178 15.951 16.064 15.951 43.978v55.713h-42.611v-52.637q0-9.0006-4.4434-14.355-4.3294-5.3548-11.735-5.3548-6.722 0-11.621 4.8991-4.8991 4.8991-4.8991 11.621 0 7.0638 4.4434 11.621t11.279 4.5573q5.5827 0 10.368-2.9622z"/>
  <path d="m584.63 887.8v113.59h-42.611v-113.59zm-21.191-50.7q8.6589 0 14.925 6.1523 6.3802 6.0384 6.3802 14.355 0 8.8867-6.0384 14.583-5.9245 5.6966-15.267 5.6966-9.3424 0-15.381-5.6966-5.9245-5.6966-5.9245-14.583 0-8.317 6.2663-14.355 6.3802-6.1523 15.039-6.1523z"/>
  <path d="m672.24 886.66v45.573q-4.4434-2.5065-8.0892-2.5065-11.621 0-11.621 17.773v53.89h-42.611v-62.093q0-24.609 13.444-39.193 13.444-14.697 35.889-14.697 5.013 0 12.988 1.2533z"/>
  <path d="m745.27 954.56v39.079q-9.2285 3.418-17.66 3.418-20.622 0-34.977-15.609-14.242-15.609-14.242-38.167 0-24.382 17.204-41.13 17.204-16.748 42.269-16.748 13.33 0 25.521 5.3548 12.191 5.3548 19.141 14.355 11.621 14.925 11.621 43.294v37.37q0 30.42-17.318 49.333-17.204 19.027-44.889 19.027-8.431 0-21.305-4.2155v-38.737q8.3171 4.5573 16.862 4.5573 11.507 0 17.773-7.6334 6.2663-7.5196 6.2663-21.647v-42.725q0-17.887-14.469-17.887-6.1524 0-10.824 4.7852-4.5573 4.6712-4.5573 10.824 0 6.4941 4.3294 10.824 4.4434 4.3294 10.938 4.3294 4.3294 0 8.3171-2.0508z"/>
  <path d="m930.75 951.49h-64.6q-1.4811-4.8991-1.4811-9.0006 0-5.6966 2.0508-11.165h21.647q-2.2786-12.646-14.242-12.646-7.9753 0-12.988 6.8359-5.013 6.722-5.013 17.318 0 11.051 4.7852 17.887 4.8991 6.8359 12.76 6.8359 6.3802 0 12.305-6.3802l24.268 29.167q-16.976 13.33-37.712 13.33-25.293 0-42.497-16.976-17.204-16.976-17.204-42.041 0-24.951 17.318-42.155 17.432-17.204 42.725-17.204 24.723 0 41.471 16.862 16.862 16.748 16.862 41.357 0 2.5065-0.45573 7.9753z"/>
  <path d="m1018.5 845.87h42.611v94.678q0 26.09-13.672 42.497-7.8613 9.4564-20.052 15.039-12.077 5.5827-24.837 5.5827-25.407 0-42.839-17.09t-17.432-41.927q0-24.04 17.318-41.585 17.318-17.546 41.016-17.546 3.7598 0 11.393 0.6836v46.94q-5.2409-4.1016-10.482-4.1016-6.6081 0-11.393 4.8991-4.6712 4.7852-4.6712 11.621 0 6.6081 4.8991 11.393 4.8991 4.6712 11.735 4.6712 16.406 0 16.406-22.673z"/>
  <path d="m1153.4 845.87h42.611v94.678q0 26.09-13.672 42.497-7.8613 9.4564-20.052 15.039-12.077 5.5827-24.837 5.5827-25.407 0-42.839-17.09-17.432-17.09-17.432-41.927 0-24.04 17.318-41.585 17.318-17.546 41.016-17.546 3.7598 0 11.393 0.6836v46.94q-5.2409-4.1016-10.482-4.1016-6.6081 0-11.393 4.8991-4.6713 4.7852-4.6713 11.621 0 6.6081 4.8991 11.393 4.8991 4.6712 11.735 4.6712 16.406 0 16.406-22.673z"/>
  <path d="m1272.2 885.41q24.154 0 41.357 17.432 17.318 17.318 17.318 41.585 0 24.609-17.546 41.927-17.432 17.318-42.155 17.318t-42.269-17.318q-17.546-17.432-17.546-41.927 0-24.951 17.546-41.927 17.546-17.09 43.294-17.09zm-1.1394 42.041q-6.8359 0-11.621 5.013-4.7852 4.8991-4.7852 12.077 0 7.0638 4.7852 12.077 4.899 5.013 11.621 5.013 6.836 0 11.621-5.013 4.8991-5.013 4.8991-12.077 0-7.1777-4.7851-12.077-4.7852-5.013-11.735-5.013z"/>
  <path d="m1449.9 1001.4h-42.611v-64.144q0-9.7982-8.0892-9.7982-7.9753 0-7.9753 9.7982v64.144h-42.611v-63.346q0-22.217 14.697-37.37 14.697-15.267 36.003-15.267 24.382 0 39.079 17.66 11.507 13.786 11.507 38.395z"/>
 </g>
 <g transform="matrix(1.4982 0 0 1.4608 -1129.5 1880)">
  <path id="pathwarningext" d="m1673.4-771.07-556.95 0.55628 274.95-487.33z" fill="#ffe001" stroke="#000" stroke-linejoin="round" stroke-width="36"/>
 </g>
 <g>
  <path d="m957.66 325.98c-61.205 0-145.7 38.619-145.7 139.1v1.0304c0.70065 100.03 102.46 223.8 145.7 223.8 43.4 0 145.7-124.35 145.7-224.83 0-100.48-84.491-139.1-145.7-139.1zm-124.7 151.22c71.302 0 115.4 40.895 115.4 116.32-74.599 0-115.4-38.835-115.4-116.32zm249.75 0c0 77.484-38.251 116.32-114.33 116.32 0-75.424 41.589-116.32 114.33-116.32z" stroke-width=".41215"/>
 </g>
</svg>
